<svg width="25" height="24" viewBox="0 0 25 24" fill="none" xmlns="http://www.w3.org/2000/svg">
<path d="M13.95 7.20039V2.40039H7.35005C6.35592 2.40039 5.55005 3.20627 5.55005 4.20039V19.8004C5.55005 20.7941 6.35592 21.6004 7.35005 21.6004H18.15C19.1442 21.6004 19.95 20.7945 19.95 19.8004V8.40039H15.1838C14.4863 8.40039 13.95 7.86414 13.95 7.20039ZM12.15 17.5504C12.15 17.9535 11.667 18.1496 11.3813 17.8685L10.05 16.5004H8.40005C8.1518 16.5004 7.95005 16.2979 7.95005 16.0504V13.9504C7.95005 13.7029 8.1518 13.5004 8.40005 13.5004H10.05L11.3813 12.1316C11.6663 11.8466 12.15 12.0491 12.15 12.4504V17.5504ZM13.95 16.9429C13.7854 16.9429 13.6219 16.8741 13.5034 16.7416C13.2819 16.4944 13.3025 16.1158 13.5491 15.8945C13.8075 15.6641 13.95 15.3454 13.95 15.0004C13.95 14.6554 13.8077 14.337 13.5492 14.1049C13.3025 13.8834 13.282 13.5049 13.5035 13.2578C13.7255 13.0105 14.1053 12.9917 14.3506 13.2121C14.8575 13.6691 15.15 14.3179 15.15 15.0004C15.15 15.6829 14.8588 16.3328 14.3509 16.7888C14.235 16.8904 14.0925 16.9429 13.95 16.9429ZM17.55 15.0004C17.55 16.5683 16.7813 18.042 15.4935 18.9416C15.393 19.0118 15.2733 19.0495 15.1506 19.0495C14.9613 19.0495 14.7745 18.9604 14.6579 18.7928C14.4686 18.5209 14.5348 18.1471 14.8067 17.9573C15.7725 17.2841 16.35 16.1779 16.35 15.0004C16.35 13.8229 15.7733 12.7189 14.8073 12.0454C14.5354 11.8556 14.4688 11.4818 14.658 11.2099C14.8473 10.9369 15.2202 10.8701 15.4932 11.0611C16.7813 11.9591 17.55 13.4329 17.55 15.0004ZM15.15 2.40039V7.20039H19.95L15.15 2.40039Z" fill="white"/>
</svg>
