<svg width="35" height="25" viewBox="0 0 35 25" fill="none" xmlns="http://www.w3.org/2000/svg">
<path fill-rule="evenodd" clip-rule="evenodd" d="M6.44682 2.60609C6.44566 2.60728 6.44402 2.6091 6.442 2.61177C6.42923 2.62862 6.40892 2.67013 6.40892 2.73363V18.9406C6.40892 19.0958 6.55826 19.2743 6.79206 19.2611C10.6937 19.0408 13.9487 20.0192 16.093 21.0515C16.2392 21.1218 16.4525 21.1187 16.6452 21.0128C16.8332 20.9095 16.8917 20.7751 16.8917 20.6748V5.02877C16.8917 4.91382 16.8243 4.81888 16.7329 4.78015C11.4673 2.54848 7.98048 2.37715 6.44682 2.60609ZM6.19387 0.917672C8.12988 0.628414 11.9423 0.895561 17.3991 3.20823C18.136 3.52054 18.5989 4.24414 18.5989 5.02877V20.6748C18.5989 21.5289 18.0761 22.1744 17.4677 22.5089C16.8641 22.8407 16.0662 22.9333 15.3525 22.5898C13.4225 21.6607 10.4544 20.7642 6.8883 20.9656C5.75506 21.0296 4.70166 20.1546 4.70166 18.9406V2.73363C4.70166 1.93402 5.21683 1.06365 6.19387 0.917672Z" fill="white"/>
<path fill-rule="evenodd" clip-rule="evenodd" d="M29.0434 2.60609C29.0446 2.60728 29.0462 2.6091 29.0482 2.61177C29.061 2.62862 29.0813 2.67013 29.0813 2.73363V18.9406C29.0813 19.0958 28.932 19.2743 28.6982 19.2611C24.7965 19.0408 21.5415 20.0192 19.3972 21.0515C19.251 21.1218 19.0377 21.1187 18.845 21.0128C18.657 20.9095 18.5986 20.7751 18.5986 20.6748V5.02877C18.5986 4.91382 18.6659 4.81888 18.7573 4.78015C24.023 2.54848 27.5098 2.37715 29.0434 2.60609ZM29.2964 0.917672C27.3604 0.628414 23.5479 0.895561 18.0911 3.20823C17.3542 3.52054 16.8913 4.24414 16.8913 5.02877V20.6748C16.8913 21.5289 17.4142 22.1744 18.0225 22.5089C18.6261 22.8407 19.4241 22.9333 20.1378 22.5898C22.0677 21.6607 25.0358 20.7642 28.6019 20.9656C29.7352 21.0296 30.7886 20.1546 30.7886 18.9406V2.73363C30.7886 1.93402 30.2734 1.06365 29.2964 0.917672Z" fill="white"/>
<path fill-rule="evenodd" clip-rule="evenodd" d="M4.28122 6.18701H3.94505C2.05926 6.18701 0.866699 7.71575 0.866699 9.60154V21.5263C0.866699 23.4121 2.39543 24.9409 4.28122 24.9409H31.2091C33.0949 24.9409 34.6236 23.4121 34.6236 21.5263V9.60154C34.6236 7.71575 33.3693 6.18701 31.4835 6.18701H31.1472V8.46336H31.4835C32.1121 8.46336 32.6217 8.97294 32.6217 9.60154V21.7563C32.6217 22.3849 32.1121 22.8945 31.4835 22.8945H3.94505C3.31646 22.8945 2.80688 22.3849 2.80688 21.7563V9.60154C2.80688 8.97294 3.31646 8.46336 3.94505 8.46336H4.28122V6.18701Z" fill="white"/>
</svg>
