<svg width="15" height="15" viewBox="0 0 15 15" fill="none" xmlns="http://www.w3.org/2000/svg">
<path fill-rule="evenodd" clip-rule="evenodd" d="M0.46875 12.6562C0.46875 12.3974 0.678617 12.1875 0.9375 12.1875H14.0625C14.3214 12.1875 14.5312 12.3974 14.5312 12.6562C14.5312 12.9151 14.3214 13.125 14.0625 13.125H0.9375C0.678617 13.125 0.46875 12.9151 0.46875 12.6562Z" fill="#848484"/>
<path fill-rule="evenodd" clip-rule="evenodd" d="M1.68084 1.68084C1.85665 1.50502 2.09511 1.40625 2.34375 1.40625H7.96875C8.21739 1.40625 8.45585 1.50502 8.63166 1.68084C8.80748 1.85665 8.90625 2.09511 8.90625 2.34375V12.6562C8.90625 12.9151 8.69638 13.125 8.4375 13.125C8.17862 13.125 7.96875 12.9151 7.96875 12.6562V2.34375H2.34375V12.6562C2.34375 12.9151 2.13388 13.125 1.875 13.125C1.61612 13.125 1.40625 12.9151 1.40625 12.6562V2.34375C1.40625 2.09511 1.50502 1.85665 1.68084 1.68084Z" fill="#848484"/>
<path fill-rule="evenodd" clip-rule="evenodd" d="M7.96875 5.625C7.96875 5.36612 8.17862 5.15625 8.4375 5.15625H12.6562C12.9049 5.15625 13.1433 5.25502 13.3192 5.43084C13.495 5.60665 13.5938 5.84511 13.5938 6.09375V12.6562C13.5938 12.9151 13.3839 13.125 13.125 13.125C12.8661 13.125 12.6562 12.9151 12.6562 12.6562V6.09375H8.4375C8.17862 6.09375 7.96875 5.88388 7.96875 5.625Z" fill="#848484"/>
<path fill-rule="evenodd" clip-rule="evenodd" d="M3.28125 4.21875C3.28125 3.95987 3.49112 3.75 3.75 3.75H5.625C5.88388 3.75 6.09375 3.95987 6.09375 4.21875C6.09375 4.47763 5.88388 4.6875 5.625 4.6875H3.75C3.49112 4.6875 3.28125 4.47763 3.28125 4.21875Z" fill="#848484"/>
<path fill-rule="evenodd" clip-rule="evenodd" d="M4.21875 7.96875C4.21875 7.70987 4.42862 7.5 4.6875 7.5H6.5625C6.82138 7.5 7.03125 7.70987 7.03125 7.96875C7.03125 8.22763 6.82138 8.4375 6.5625 8.4375H4.6875C4.42862 8.4375 4.21875 8.22763 4.21875 7.96875Z" fill="#848484"/>
<path fill-rule="evenodd" clip-rule="evenodd" d="M3.28125 10.3125C3.28125 10.0536 3.49112 9.84375 3.75 9.84375H5.625C5.88388 9.84375 6.09375 10.0536 6.09375 10.3125C6.09375 10.5714 5.88388 10.7812 5.625 10.7812H3.75C3.49112 10.7812 3.28125 10.5714 3.28125 10.3125Z" fill="#848484"/>
<path fill-rule="evenodd" clip-rule="evenodd" d="M9.84375 10.3125C9.84375 10.0536 10.0536 9.84375 10.3125 9.84375H11.25C11.5089 9.84375 11.7188 10.0536 11.7188 10.3125C11.7188 10.5714 11.5089 10.7812 11.25 10.7812H10.3125C10.0536 10.7812 9.84375 10.5714 9.84375 10.3125Z" fill="#848484"/>
<path fill-rule="evenodd" clip-rule="evenodd" d="M9.84375 7.96875C9.84375 7.70987 10.0536 7.5 10.3125 7.5H11.25C11.5089 7.5 11.7188 7.70987 11.7188 7.96875C11.7188 8.22763 11.5089 8.4375 11.25 8.4375H10.3125C10.0536 8.4375 9.84375 8.22763 9.84375 7.96875Z" fill="#848484"/>
</svg>
