<svg width="33" height="32" viewBox="0 0 33 32" fill="none" xmlns="http://www.w3.org/2000/svg">
<rect x="1" y="0.5" width="31" height="31" rx="6.5" fill="#F4F7F7"/>
<mask id="mask0_352_36654" style="mask-type:alpha" maskUnits="userSpaceOnUse" x="9" y="8" width="14" height="17">
<path fill-rule="evenodd" clip-rule="evenodd" d="M9.75 8.5H22.5291V24.135H9.75V8.5Z" fill="white"/>
</mask>
<g mask="url(#mask0_352_36654)">
<path fill-rule="evenodd" clip-rule="evenodd" d="M13.7565 9.625C11.8447 9.625 10.875 10.3615 10.875 11.8158V22.8588C10.875 22.9293 10.9155 22.9675 10.9492 22.987C10.983 23.008 11.0362 23.023 11.0977 22.9885L15.8842 20.3035C16.0552 20.2083 16.2645 20.2075 16.4362 20.3043L21.1815 22.9848C21.2437 23.0208 21.297 23.0043 21.3307 22.984C21.3645 22.9638 21.4042 22.9255 21.4042 22.855V11.953C21.4042 11.3778 21.4042 9.625 18.5257 9.625H13.7565ZM11.0243 24.1353C10.803 24.1353 10.5818 24.076 10.3808 23.9575C9.9855 23.7273 9.75 23.3155 9.75 22.8588V11.8158C9.75 9.70825 11.2103 8.5 13.7565 8.5H18.5258C21.0697 8.5 22.5292 9.75925 22.5292 11.953V22.855C22.5292 23.3125 22.2938 23.7243 21.8978 23.9545C21.5033 24.1855 21.0278 24.19 20.6287 23.965L16.1588 21.4398L11.6475 23.9703C11.4525 24.0798 11.2387 24.1353 11.0243 24.1353Z" fill="#949494"/>
</g>
<path fill-rule="evenodd" clip-rule="evenodd" d="M18.8547 14.6719H13.3662C13.0557 14.6719 12.8037 14.4199 12.8037 14.1094C12.8037 13.7989 13.0557 13.5469 13.3662 13.5469H18.8547C19.1652 13.5469 19.4172 13.7989 19.4172 14.1094C19.4172 14.4199 19.1652 14.6719 18.8547 14.6719Z" fill="#949494"/>
<rect x="1" y="0.5" width="31" height="31" rx="6.5" stroke="#949494"/>
</svg>
