<svg width="27" height="25" viewBox="0 0 27 25" fill="none" xmlns="http://www.w3.org/2000/svg">
<path d="M15.9 0.00133324C16.4227 0.00129132 16.9364 0.137833 17.3901 0.39743C17.8438 0.657027 18.2218 1.03067 18.4867 1.48133L19.572 3.33067H22.3333C23.4824 3.33067 24.5844 3.78703 25.397 4.5994C26.2096 5.41177 26.6663 6.51363 26.6667 7.66267V20.3293C26.6667 20.8984 26.5546 21.4619 26.3368 21.9876C26.119 22.5134 25.7999 22.9911 25.3975 23.3935C24.9951 23.7959 24.5174 24.115 23.9916 24.3328C23.4659 24.5506 22.9024 24.6627 22.3333 24.6627H4.33333C3.18406 24.6627 2.08186 24.2061 1.2692 23.3935C0.456546 22.5808 0 21.4786 0 20.3293V7.66267C0 6.51339 0.456546 5.41119 1.2692 4.59854C2.08186 3.78588 3.18406 3.32933 4.33333 3.32933H7.10667L8.27333 1.43067C8.54158 0.993626 8.91739 0.632642 9.36486 0.382179C9.81233 0.131716 10.3165 0.000135643 10.8293 0H15.9V0.00133324ZM15.9 2.00133H10.8293C10.6834 2.00145 10.5393 2.0335 10.4071 2.09523C10.2749 2.15696 10.1578 2.24688 10.064 2.35867L9.97733 2.47867L8.52 4.852C8.43064 4.99776 8.30539 5.11818 8.15623 5.20175C8.00707 5.28531 7.83898 5.32924 7.668 5.32933H4.33467C4.02814 5.32916 3.72458 5.38938 3.44133 5.50657C3.15808 5.62375 2.9007 5.79559 2.68389 6.01228C2.46708 6.22897 2.29509 6.48625 2.17774 6.76943C2.0604 7.05261 2 7.35614 2 7.66267V20.3293C2 21.6173 3.04533 22.6627 4.33333 22.6627H22.3333C22.9522 22.6627 23.5457 22.4168 23.9832 21.9792C24.4208 21.5417 24.6667 20.9482 24.6667 20.3293V7.66267C24.6667 7.04383 24.4208 6.45034 23.9832 6.01275C23.5457 5.57517 22.9522 5.32933 22.3333 5.32933H19C18.8257 5.32942 18.6544 5.28395 18.503 5.19741C18.3517 5.11088 18.2257 4.98629 18.1373 4.836L16.7613 2.49333C16.6731 2.34324 16.5473 2.21878 16.3962 2.13225C16.2451 2.04573 16.0741 2.00014 15.9 2V2.00133ZM13.3333 7.32933C14.9246 7.32933 16.4508 7.96147 17.576 9.08669C18.7012 10.2119 19.3333 11.738 19.3333 13.3293C19.3333 14.9206 18.7012 16.4468 17.576 17.572C16.4508 18.6972 14.9246 19.3293 13.3333 19.3293C11.742 19.3293 10.2159 18.6972 9.09069 17.572C7.96548 16.4468 7.33333 14.9206 7.33333 13.3293C7.33333 11.738 7.96548 10.2119 9.09069 9.08669C10.2159 7.96147 11.742 7.32933 13.3333 7.32933ZM13.3333 9.32933C12.808 9.32933 12.2879 9.4328 11.8026 9.63381C11.3173 9.83483 10.8763 10.1295 10.5049 10.5009C10.1335 10.8723 9.83883 11.3133 9.63782 11.7986C9.4368 12.2839 9.33333 12.804 9.33333 13.3293C9.33333 13.8546 9.4368 14.3748 9.63782 14.8601C9.83883 15.3454 10.1335 15.7863 10.5049 16.1578C10.8763 16.5292 11.3173 16.8238 11.8026 17.0249C12.2879 17.2259 12.808 17.3293 13.3333 17.3293C14.3942 17.3293 15.4116 16.9079 16.1618 16.1578C16.9119 15.4076 17.3333 14.3902 17.3333 13.3293C17.3333 12.2685 16.9119 11.2511 16.1618 10.5009C15.4116 9.75076 14.3942 9.32933 13.3333 9.32933Z" fill="#F4F7F7"/>
</svg>
