<svg width="19" height="19" viewBox="0 0 19 19" fill="none" xmlns="http://www.w3.org/2000/svg">
<path fill-rule="evenodd" clip-rule="evenodd" d="M12.9641 1.8623H15.4141C16.4277 1.8623 17.25 2.69173 17.25 3.71494V6.18538C17.25 7.20782 16.4277 8.03802 15.4141 8.03802H12.9641C11.9497 8.03802 11.1274 7.20782 11.1274 6.18538V3.71494C11.1274 2.69173 11.9497 1.8623 12.9641 1.8623Z" stroke="#202020" stroke-width="1.5" stroke-linecap="round" stroke-linejoin="round"/>
<path fill-rule="evenodd" clip-rule="evenodd" d="M4.08669 1.8623H6.53587C7.55027 1.8623 8.37256 2.69173 8.37256 3.71494V6.18538C8.37256 7.20782 7.55027 8.03802 6.53587 8.03802H4.08669C3.07228 8.03802 2.25 7.20782 2.25 6.18538V3.71494C2.25 2.69173 3.07228 1.8623 4.08669 1.8623Z" stroke="#202020" stroke-width="1.5" stroke-linecap="round" stroke-linejoin="round"/>
<path fill-rule="evenodd" clip-rule="evenodd" d="M4.08669 10.6866H6.53587C7.55027 10.6866 8.37256 11.5161 8.37256 12.5401V15.0097C8.37256 16.0329 7.55027 16.8624 6.53587 16.8624H4.08669C3.07228 16.8624 2.25 16.0329 2.25 15.0097V12.5401C2.25 11.5161 3.07228 10.6866 4.08669 10.6866Z" stroke="#202020" stroke-width="1.5" stroke-linecap="round" stroke-linejoin="round"/>
<path fill-rule="evenodd" clip-rule="evenodd" d="M12.9641 10.6866H15.4141C16.4277 10.6866 17.25 11.5161 17.25 12.5401V15.0097C17.25 16.0329 16.4277 16.8624 15.4141 16.8624H12.9641C11.9497 16.8624 11.1274 16.0329 11.1274 15.0097V12.5401C11.1274 11.5161 11.9497 10.6866 12.9641 10.6866Z" stroke="#202020" stroke-width="1.5" stroke-linecap="round" stroke-linejoin="round"/>
</svg>
