<svg width="16" height="15" viewBox="0 0 16 15" fill="none" xmlns="http://www.w3.org/2000/svg">
<path fill-rule="evenodd" clip-rule="evenodd" d="M7.58057 2.34375C4.73285 2.34375 2.42432 4.65228 2.42432 7.5C2.42432 10.3477 4.73285 12.6562 7.58057 12.6562C10.4283 12.6562 12.7368 10.3477 12.7368 7.5C12.7368 4.65228 10.4283 2.34375 7.58057 2.34375ZM1.48682 7.5C1.48682 4.13451 4.21508 1.40625 7.58057 1.40625C10.9461 1.40625 13.6743 4.13451 13.6743 7.5C13.6743 10.8655 10.9461 13.5938 7.58057 13.5938C4.21508 13.5938 1.48682 10.8655 1.48682 7.5Z" fill="#848484"/>
<path fill-rule="evenodd" clip-rule="evenodd" d="M7.58057 3.75C7.83945 3.75 8.04932 3.95987 8.04932 4.21875V7.03125H10.8618C11.1207 7.03125 11.3306 7.24112 11.3306 7.5C11.3306 7.75888 11.1207 7.96875 10.8618 7.96875H7.58057C7.32168 7.96875 7.11182 7.75888 7.11182 7.5V4.21875C7.11182 3.95987 7.32168 3.75 7.58057 3.75Z" fill="#848484"/>
</svg>
