<svg width="42" height="40" viewBox="0 0 42 40" fill="none" xmlns="http://www.w3.org/2000/svg">
<path d="M22.8489 19.9987L30.1891 13.0198C30.436 12.7846 30.5747 12.4656 30.5747 12.133C30.5747 11.8004 30.436 11.4814 30.1891 11.2462C29.9421 11.011 29.6073 10.8789 29.2581 10.8789C28.9089 10.8789 28.574 11.011 28.3271 11.2462L21 18.2377L13.6744 11.2462C13.4275 11.011 13.0926 10.8789 12.7434 10.8789C12.3942 10.8789 12.0594 11.011 11.8124 11.2462C11.5655 11.4814 11.4268 11.8004 11.4268 12.133C11.4268 12.4656 11.5655 12.7846 11.8124 13.0198L19.1512 19.9987L11.8127 26.9761C11.6898 27.0922 11.5922 27.2303 11.5256 27.3825C11.4591 27.5347 11.4248 27.698 11.4248 27.8629C11.4248 28.0277 11.4591 28.191 11.5256 28.3432C11.5922 28.4954 11.6898 28.6335 11.8127 28.7496C11.9346 28.8667 12.0796 28.9596 12.2394 29.023C12.3992 29.0864 12.5705 29.1191 12.7436 29.1191C12.9167 29.1191 13.0881 29.0864 13.2479 29.023C13.4077 28.9596 13.5527 28.8667 13.6746 28.7496L21 21.7598L28.3259 28.75C28.4478 28.8671 28.5928 28.96 28.7526 29.0234C28.9123 29.0868 29.0837 29.1194 29.2568 29.1194C29.4299 29.1194 29.6013 29.0868 29.7611 29.0234C29.9209 28.96 30.0659 28.8671 30.1878 28.75C30.3107 28.6339 30.4083 28.4958 30.4748 28.3436C30.5414 28.1914 30.5757 28.0281 30.5757 27.8632C30.5757 27.6984 30.5414 27.5351 30.4748 27.3829C30.4083 27.2307 30.3107 27.0926 30.1878 26.9765L22.8489 19.9987Z" fill="#112A2D"/>
</svg>
