<svg width="20" height="20" viewBox="0 0 20 20" fill="none" xmlns="http://www.w3.org/2000/svg">
<path fill-rule="evenodd" clip-rule="evenodd" d="M15.6665 2.2334C15.3908 2.2334 15.1178 2.2877 14.863 2.39321C14.6083 2.49872 14.3769 2.65336 14.1819 2.84832L9.56367 7.46656L9.56356 7.46667C9.24048 7.78935 9.02014 8.20044 8.9303 8.64813L8.9302 8.64864L8.50358 10.7841C8.46397 10.9824 8.52608 11.1874 8.6691 11.3304C8.81211 11.4733 9.01712 11.5354 9.21541 11.4957L11.3508 11.0683L11.3509 11.0683C11.7985 10.9787 12.2092 10.7592 12.5325 10.4359L17.151 5.8174C17.346 5.62244 17.5006 5.391 17.6061 5.13628C17.7116 4.88156 17.7659 4.60856 17.7659 4.33286C17.7659 4.05715 17.7116 3.78415 17.6061 3.52943C17.5006 3.27471 17.346 3.04327 17.151 2.84832C16.956 2.65336 16.7246 2.49872 16.4699 2.39321C16.2152 2.2877 15.9422 2.2334 15.6665 2.2334ZM15.326 3.51081C15.4339 3.46609 15.5496 3.44308 15.6665 3.44308C15.7833 3.44308 15.899 3.46609 16.007 3.51081C16.1149 3.55552 16.213 3.62106 16.2956 3.70369C16.3783 3.78631 16.4438 3.8844 16.4885 3.99235C16.5332 4.1003 16.5562 4.21601 16.5562 4.33286C16.5562 4.4497 16.5332 4.56541 16.4885 4.67336C16.4438 4.78131 16.3783 4.8794 16.2956 4.96202L15.4225 5.8352L14.1638 4.57716L15.0373 3.70369C15.1199 3.62106 15.218 3.55552 15.326 3.51081ZM13.3085 5.43253L14.5671 6.69057L11.6771 9.58057C11.5229 9.73475 11.3273 9.83936 11.1136 9.8821L11.1135 9.88212L9.86754 10.1315L10.1163 8.88613L10.1164 8.88594C10.1593 8.67244 10.2644 8.47641 10.4184 8.32253L10.4187 8.32223L13.3085 5.43253ZM4.35161 5.35202C4.54066 5.16297 4.79707 5.05677 5.06442 5.05677H7.48378C7.81782 5.05677 8.08861 4.78597 8.08861 4.45193C8.08861 4.11788 7.81782 3.84709 7.48378 3.84709H5.06442C4.47624 3.84709 3.91215 4.08074 3.49624 4.49665C3.08033 4.91256 2.84668 5.47665 2.84668 6.06483V14.9358C2.84668 15.524 3.08033 16.0881 3.49624 16.504C3.91215 16.9199 4.47624 17.1535 5.06442 17.1535H13.9354C14.5236 17.1535 15.0877 16.9199 15.5036 16.504C15.9195 16.0881 16.1531 15.524 16.1531 14.9358V12.5164C16.1531 12.1824 15.8823 11.9116 15.5483 11.9116C15.2142 11.9116 14.9435 12.1824 14.9435 12.5164V14.9358C14.9435 15.2032 14.8372 15.4596 14.6482 15.6486C14.4591 15.8377 14.2027 15.9439 13.9354 15.9439H5.06442C4.79707 15.9439 4.54066 15.8377 4.35161 15.6486C4.16256 15.4596 4.05636 15.2032 4.05636 14.9358V6.06483C4.05636 5.79748 4.16256 5.54107 4.35161 5.35202Z" fill="#112A2D"/>
</svg>
