<svg width="31" height="31" viewBox="0 0 31 31" fill="none" xmlns="http://www.w3.org/2000/svg">
<g clip-path="url(#clip0_1_1017)">
<path d="M30.912 15.456C30.912 6.91988 23.9921 0 15.456 0C6.91988 0 0 6.91988 0 15.456C0 23.1704 5.65201 29.5647 13.041 30.7242V19.9237H9.11662V15.456H13.041V12.0509C13.041 8.17719 15.3485 6.0375 18.879 6.0375C20.5695 6.0375 22.3387 6.33938 22.3387 6.33938V10.143H20.3898C18.4699 10.143 17.871 11.3345 17.871 12.558V15.456H22.1576L21.4724 19.9237H17.871V30.7242C25.26 29.5647 30.912 23.1704 30.912 15.456Z" fill="white"/>
</g>
<defs>
<clipPath id="clip0_1_1017">
<rect width="30.912" height="30.912" fill="white"/>
</clipPath>
</defs>
</svg>
