<svg width="16" height="15" viewBox="0 0 16 15" fill="none" xmlns="http://www.w3.org/2000/svg">
<path fill-rule="evenodd" clip-rule="evenodd" d="M7.34375 3.05011H5.425C3.11875 3.05011 1.99375 4.28136 2 6.80636V9.85011C2 12.2626 3.4875 13.7501 5.90625 13.7501H10.6C13.0063 13.7501 14.5 12.2626 14.5 9.84386V5.15011C14.5 2.56261 13.35 1.25011 11.0813 1.25011H10.0938C9.51187 1.24386 8.96875 1.51261 8.6125 1.96886L8.0625 2.70011C7.8875 2.91886 7.625 3.05011 7.34375 3.05011ZM11.1437 9.55636H5.35625C5.1 9.55636 4.89375 9.34386 4.89375 9.08761C4.89375 8.82511 5.1 8.61886 5.35625 8.61886H11.1437C11.4062 8.61886 11.6125 8.82511 11.6125 9.08761C11.6125 9.34386 11.4062 9.55636 11.1437 9.55636Z" fill="#999999"/>
</svg>
