<svg width="31" height="31" viewBox="0 0 31 31" fill="none" xmlns="http://www.w3.org/2000/svg">
<path fill-rule="evenodd" clip-rule="evenodd" d="M15.1597 4.31152C16.7666 4.2991 18.3601 4.60449 19.8485 5.21017C21.3392 5.81677 22.6951 6.71255 23.8378 7.84583C24.9805 8.97912 25.8875 10.3275 26.5065 11.8131C27.1254 13.2987 27.444 14.8922 27.444 16.5015C27.444 16.5016 27.444 16.5015 27.444 16.5015V23.0654C27.444 23.8115 27.1476 24.527 26.6201 25.0545C26.0925 25.5821 25.377 25.8785 24.6309 25.8785H22.7555C22.0095 25.8785 21.2939 25.5821 20.7664 25.0545C20.2388 24.527 19.9425 23.8115 19.9425 23.0654V18.3769C19.9425 17.6309 20.2388 16.9153 20.7664 16.3878C21.2939 15.8602 22.0095 15.5639 22.7555 15.5639H25.5259C25.431 14.5236 25.1784 13.5019 24.7753 12.5343C24.2516 11.2773 23.4841 10.1364 22.5172 9.17742C21.5503 8.21849 20.403 7.46052 19.1417 6.94724C17.8803 6.43397 16.5298 6.17555 15.168 6.1869L15.1534 6.18691C13.7925 6.17698 12.4432 6.43645 11.1831 6.95037C9.92294 7.46428 8.77697 8.22248 7.81119 9.18127C6.84541 10.1401 6.07891 11.2805 5.55585 12.5368C5.15332 13.5037 4.9011 14.5245 4.80625 15.5639H7.57664C8.32272 15.5639 9.03823 15.8602 9.56579 16.3878C10.0933 16.9153 10.3897 17.6309 10.3897 18.3769V23.0654C10.3897 23.8115 10.0933 24.527 9.56579 25.0545C9.03823 25.5821 8.32272 25.8785 7.57664 25.8785H5.70126C4.95518 25.8785 4.23967 25.5821 3.71211 25.0545C3.18456 24.527 2.88818 23.8115 2.88818 23.0654V16.5016C2.88814 14.8932 3.20637 13.3008 3.82452 11.816C4.44268 10.3313 5.34854 8.98348 6.48992 7.85036C7.6313 6.71725 8.98562 5.8212 10.4749 5.21384C11.9618 4.60741 13.5539 4.30078 15.1597 4.31152ZM4.76357 17.4392V23.0654C4.76357 23.3141 4.86236 23.5526 5.03821 23.7284C5.21406 23.9043 5.45257 24.0031 5.70126 24.0031H7.57664C7.82533 24.0031 8.06384 23.9043 8.23969 23.7284C8.41554 23.5526 8.51433 23.3141 8.51433 23.0654V18.3769C8.51433 18.1282 8.41554 17.8897 8.23969 17.7139C8.06384 17.538 7.82533 17.4392 7.57664 17.4392H4.76357ZM25.5686 17.4392H22.7555C22.5068 17.4392 22.2683 17.538 22.0925 17.7139C21.9166 17.8897 21.8178 18.1282 21.8178 18.3769V23.0654C21.8178 23.3141 21.9166 23.5526 22.0925 23.7284C22.2683 23.9043 22.5068 24.0031 22.7555 24.0031H24.6309C24.8796 24.0031 25.1181 23.9043 25.294 23.7284C25.4698 23.5526 25.5686 23.3141 25.5686 23.0654V17.4392Z" fill="white"/>
</svg>
