<svg width="25" height="24" viewBox="0 0 25 24" fill="none" xmlns="http://www.w3.org/2000/svg">
<mask id="mask0_862_10474" style="mask-type:alpha" maskUnits="userSpaceOnUse" x="2" y="3" width="21" height="20">
<path fill-rule="evenodd" clip-rule="evenodd" d="M2.25 3H22.7225V22.501H2.25V3Z" fill="white"/>
</mask>
<g mask="url(#mask0_862_10474)">
<path fill-rule="evenodd" clip-rule="evenodd" d="M4.07347 12.1231C5.47547 16.4851 11.0145 20.0121 12.4865 20.8851C13.9635 20.0031 19.5425 16.4371 20.8995 12.1271C21.7905 9.34112 20.9635 5.81212 17.6775 4.75312C16.0855 4.24212 14.2285 4.55312 12.9465 5.54512C12.6785 5.75112 12.3065 5.75512 12.0365 5.55112C10.6785 4.53012 8.90447 4.23112 7.28747 4.75312C4.00647 5.81112 3.18247 9.34012 4.07347 12.1231ZM12.4875 22.5011C12.3635 22.5011 12.2405 22.4711 12.1285 22.4101C11.8155 22.2391 4.44247 18.1751 2.64547 12.5811C2.64447 12.5811 2.64447 12.5801 2.64447 12.5801C1.51647 9.05812 2.77247 4.63212 6.82747 3.32512C8.73147 2.70912 10.8065 2.98012 12.4845 4.03912C14.1105 3.01112 16.2705 2.72712 18.1365 3.32512C22.1955 4.63412 23.4555 9.05912 22.3285 12.5801C20.5895 18.1101 13.1625 22.2351 12.8475 22.4081C12.7355 22.4701 12.6115 22.5011 12.4875 22.5011Z" fill="#034567"/>
</g>
<path fill-rule="evenodd" clip-rule="evenodd" d="M18.4037 10.6253C18.0167 10.6253 17.6887 10.3283 17.6567 9.93626C17.5907 9.11426 17.0407 8.42026 16.2577 8.16726C15.8627 8.03926 15.6467 7.61626 15.7737 7.22326C15.9027 6.82926 16.3217 6.61526 16.7177 6.73926C18.0807 7.18026 19.0357 8.38726 19.1527 9.81426C19.1857 10.2273 18.8787 10.5893 18.4657 10.6223C18.4447 10.6243 18.4247 10.6253 18.4037 10.6253Z" fill="#034567"/>
</svg>
