<svg width="13" height="9" viewBox="0 0 13 9" fill="none" xmlns="http://www.w3.org/2000/svg">
<g clip-path="url(#clip0_668_11843)">
<path d="M9.16596 3.38775C8.86302 3.50457 8.58864 3.61132 8.31342 3.71613C7.74233 3.93439 7.16784 4.144 6.60071 4.37205C6.33087 4.48048 6.08223 4.48104 5.80871 4.37568C4.09817 3.71501 2.38556 3.05993 0.670873 2.41044C0.583187 2.37718 0.498047 2.34253 0.498047 2.23493C0.498047 2.12733 0.58149 2.09044 0.669459 2.05719C2.43374 1.39242 4.19755 0.726251 5.96089 0.0586879C6.15868 -0.0208712 6.38034 -0.0196652 6.57724 0.0620415C7.90082 0.576827 9.22526 1.08919 10.5505 1.59913C10.963 1.75824 11.3753 1.91717 11.7875 2.07591C11.867 2.10637 11.9527 2.14606 11.925 2.23856C11.8988 2.30776 11.8461 2.36392 11.7782 2.39479C11.4294 2.53452 11.0752 2.66252 10.7234 2.79527C10.6668 2.81651 10.6125 2.84166 10.5503 2.86793C10.5571 2.88774 10.5666 2.90655 10.5786 2.92383C10.9952 3.29636 11.1443 3.77901 11.1646 4.31392C11.1688 4.36041 11.1688 4.40716 11.1646 4.45365C11.1412 4.62581 11.1833 4.74123 11.3468 4.85357C11.6599 5.06821 11.62 5.58495 11.2936 5.78226C11.2 5.83815 11.2008 5.90858 11.2088 5.99465C11.2413 6.43147 11.4005 6.82944 11.6132 7.20449C11.7948 7.52476 12.005 7.8291 12.2033 8.13988C12.2302 8.18236 12.2599 8.22372 12.2983 8.27626C12.0409 8.43388 11.7957 8.58954 11.5434 8.73235C11.5038 8.75471 11.4234 8.73236 11.3737 8.70748C11.0246 8.52694 10.8425 8.21701 10.7265 7.86208C10.5514 7.32578 10.5375 6.77354 10.5698 6.21767C10.5766 6.10169 10.5998 5.98627 10.6015 5.87057C10.5976 5.81632 10.5793 5.76405 10.5483 5.7191C10.3503 5.39715 10.3746 5.15037 10.6331 4.87062C10.6631 4.8382 10.6982 4.79516 10.7005 4.7552C10.7287 4.23343 10.6422 3.7396 10.2824 3.33213C10.1844 3.21918 10.0639 3.1273 9.92854 3.06216C8.8121 2.55353 7.69113 2.05607 6.5713 1.55302L6.5068 1.52507C6.32097 1.44682 6.1521 1.49936 6.0746 1.6595C5.9971 1.81964 6.06724 1.98592 6.25138 2.07228C6.52406 2.19972 6.79985 2.32017 7.07422 2.44314C7.7231 2.73304 8.37197 3.02313 9.02085 3.31341C9.06017 3.33157 9.0992 3.35365 9.16596 3.38775Z" fill="#F5AC3D"/>
<path d="M2.62828 3.89276C2.98214 4.02104 3.30346 4.13786 3.62507 4.25412C4.44706 4.55092 5.26905 4.84939 6.09273 5.14172C6.16211 5.16475 6.23711 5.16534 6.30685 5.14339C7.40151 4.75661 8.49523 4.36674 9.58801 3.97381C9.65307 3.95033 9.71897 3.92909 9.80326 3.90059C9.80892 3.96151 9.81599 4.00539 9.81656 4.04954C9.81656 4.1985 9.81147 4.34774 9.81826 4.4967C9.82702 4.68618 9.80411 4.85302 9.66862 5.01148C9.5221 5.18308 9.49495 5.39911 9.57783 5.61822C9.60753 5.69647 9.63213 5.77668 9.66579 5.85325C9.77187 6.09583 9.77498 6.09779 9.56001 6.25541C8.83759 6.78473 8.02126 7.07258 7.13054 7.15307C6.12917 7.24603 5.11905 7.15199 4.15289 6.87584C3.66496 6.7361 3.20842 6.53097 2.82543 6.1889C2.6891 6.06705 2.61895 5.93402 2.62404 5.74007C2.63846 5.1909 2.62913 4.64146 2.62913 4.09119L2.62828 3.89276Z" fill="#F5AC3D"/>
</g>
<defs>
<clipPath id="clip0_668_11843">
<rect width="11.8" height="8.74074" fill="white" transform="translate(0.499268)"/>
</clipPath>
</defs>
</svg>
