<svg width="39" height="38" viewBox="0 0 39 38" fill="none" xmlns="http://www.w3.org/2000/svg">
<path fill-rule="evenodd" clip-rule="evenodd" d="M29.25 12.6665C29.25 12.0366 29.5002 11.4325 29.9456 10.9871C30.391 10.5417 30.9951 10.2915 31.625 10.2915C32.2549 10.2915 32.859 10.5417 33.3044 10.9871C33.7498 11.4325 34 12.0366 34 12.6665V28.7397L31.625 32.3022L29.25 28.7397V12.6665ZM31.625 11.8748C31.415 11.8748 31.2137 11.9582 31.0652 12.1067C30.9167 12.2552 30.8333 12.4565 30.8333 12.6665V28.26L31.625 29.4475L32.4167 28.26V12.6665C32.4167 12.4565 32.3333 12.2552 32.1848 12.1067C32.0363 11.9582 31.835 11.8748 31.625 11.8748Z" fill="#265E64"/>
<path fill-rule="evenodd" clip-rule="evenodd" d="M33.2083 15.8333H30.0417V14.25H33.2083V15.8333ZM8.66667 6.33333C8.24674 6.33333 7.84401 6.50015 7.54708 6.79708C7.25015 7.09401 7.08333 7.49674 7.08333 7.91667V30.0833C7.08333 30.5033 7.25015 30.906 7.54708 31.2029C7.84401 31.4999 8.24674 31.6667 8.66667 31.6667H24.5C24.9199 31.6667 25.3227 31.4999 25.6196 31.2029C25.9165 30.906 26.0833 30.5033 26.0833 30.0833V7.91667C26.0833 7.49674 25.9165 7.09401 25.6196 6.79708C25.3227 6.50015 24.9199 6.33333 24.5 6.33333H8.66667ZM5.5 7.91667C5.5 7.07681 5.83363 6.27136 6.4275 5.6775C7.02136 5.08363 7.82681 4.75 8.66667 4.75H24.5C25.3399 4.75 26.1453 5.08363 26.7392 5.6775C27.333 6.27136 27.6667 7.07681 27.6667 7.91667V30.0833C27.6667 30.9232 27.333 31.7286 26.7392 32.3225C26.1453 32.9164 25.3399 33.25 24.5 33.25H8.66667C7.82681 33.25 7.02136 32.9164 6.4275 32.3225C5.83363 31.7286 5.5 30.9232 5.5 30.0833V7.91667Z" fill="#265E64"/>
<path fill-rule="evenodd" clip-rule="evenodd" d="M16.5834 11.8752C16.5834 11.6652 16.6668 11.4638 16.8153 11.3154C16.9637 11.1669 17.1651 11.0835 17.375 11.0835H23.7084C23.9183 11.0835 24.1197 11.1669 24.2682 11.3154C24.4166 11.4638 24.5 11.6652 24.5 11.8752C24.5 12.0851 24.4166 12.2865 24.2682 12.435C24.1197 12.5834 23.9183 12.6668 23.7084 12.6668H17.375C17.1651 12.6668 16.9637 12.5834 16.8153 12.435C16.6668 12.2865 16.5834 12.0851 16.5834 11.8752ZM16.5834 15.0418C16.5834 14.8319 16.6668 14.6305 16.8153 14.482C16.9637 14.3336 17.1651 14.2502 17.375 14.2502H23.7084C23.9183 14.2502 24.1197 14.3336 24.2682 14.482C24.4166 14.6305 24.5 14.8319 24.5 15.0418C24.5 15.2518 24.4166 15.4532 24.2682 15.6016C24.1197 15.7501 23.9183 15.8335 23.7084 15.8335H17.375C17.1651 15.8335 16.9637 15.7501 16.8153 15.6016C16.6668 15.4532 16.5834 15.2518 16.5834 15.0418ZM16.5834 22.1668C16.5834 21.9569 16.6668 21.7555 16.8153 21.607C16.9637 21.4586 17.1651 21.3752 17.375 21.3752H23.7084C23.9183 21.3752 24.1197 21.4586 24.2682 21.607C24.4166 21.7555 24.5 21.9569 24.5 22.1668C24.5 22.3768 24.4166 22.5782 24.2682 22.7266C24.1197 22.8751 23.9183 22.9585 23.7084 22.9585H17.375C17.1651 22.9585 16.9637 22.8751 16.8153 22.7266C16.6668 22.5782 16.5834 22.3768 16.5834 22.1668ZM16.5834 25.3335C16.5834 25.1235 16.6668 24.9222 16.8153 24.7737C16.9637 24.6252 17.1651 24.5418 17.375 24.5418H23.7084C23.9183 24.5418 24.1197 24.6252 24.2682 24.7737C24.4166 24.9222 24.5 25.1235 24.5 25.3335C24.5 25.5435 24.4166 25.7448 24.2682 25.8933C24.1197 26.0418 23.9183 26.1252 23.7084 26.1252H17.375C17.1651 26.1252 16.9637 26.0418 16.8153 25.8933C16.6668 25.7448 16.5834 25.5435 16.5834 25.3335ZM10.25 22.1668V24.5418H12.625V22.1668H10.25ZM9.45838 20.5835H13.4167C13.6267 20.5835 13.828 20.6669 13.9765 20.8154C14.125 20.9638 14.2084 21.1652 14.2084 21.3752V25.3335C14.2084 25.5435 14.125 25.7448 13.9765 25.8933C13.828 26.0418 13.6267 26.1252 13.4167 26.1252H9.45838C9.24841 26.1252 9.04705 26.0418 8.89858 25.8933C8.75012 25.7448 8.66671 25.5435 8.66671 25.3335V21.3752C8.66671 21.1652 8.75012 20.9638 8.89858 20.8154C9.04705 20.6669 9.24841 20.5835 9.45838 20.5835ZM14.7681 11.3155C14.9165 11.4639 14.9999 11.6652 14.9999 11.8752C14.9999 12.0851 14.9165 12.2864 14.7681 12.4349L11.0417 16.1612L8.89867 14.0182C8.82306 13.9452 8.76275 13.8578 8.72126 13.7612C8.67976 13.6646 8.65793 13.5608 8.65701 13.4556C8.6561 13.3505 8.67613 13.2463 8.71594 13.149C8.75574 13.0517 8.81453 12.9633 8.88886 12.889C8.96319 12.8146 9.05158 12.7559 9.14887 12.7161C9.24617 12.6762 9.35041 12.6562 9.45553 12.6571C9.56065 12.658 9.66453 12.6799 9.76111 12.7214C9.8577 12.7629 9.94506 12.8232 10.0181 12.8988L11.0417 13.9224L13.6487 11.3155C13.7971 11.167 13.9985 11.0837 14.2084 11.0837C14.4183 11.0837 14.6196 11.167 14.7681 11.3155Z" fill="#265E64"/>
</svg>
