<svg width="22" height="21" viewBox="0 0 22 21" fill="none" xmlns="http://www.w3.org/2000/svg">
<path fill-rule="evenodd" clip-rule="evenodd" d="M15.0778 1.63576C14.1824 1.63576 13.4461 2.36953 13.4461 3.28792V6.45159C13.4461 7.36919 14.1826 8.10376 15.0778 8.10376H18.2152C19.1092 8.10376 19.846 7.36938 19.846 6.45159V3.28792C19.846 2.36934 19.1094 1.63576 18.2152 1.63576H15.0778ZM12.0054 3.28792C12.0054 1.58563 13.375 0.195068 15.0778 0.195068H18.2152C19.9172 0.195068 21.2867 1.58583 21.2867 3.28792V6.45159C21.2867 8.1525 19.9174 9.54445 18.2152 9.54445H15.0778C13.3749 9.54445 12.0054 8.15269 12.0054 6.45159V3.28792Z" fill="white"/>
<path fill-rule="evenodd" clip-rule="evenodd" d="M3.70915 12.9363C2.81398 12.9363 2.07741 13.6699 2.07741 14.5894V17.7521C2.07741 18.6705 2.81378 19.4043 3.70915 19.4043H6.84559C7.74096 19.4043 8.47734 18.6705 8.47734 17.7521V14.5894C8.47734 13.6699 7.74076 12.9363 6.84559 12.9363H3.70915ZM0.636719 14.5894C0.636719 12.8864 2.0062 11.4956 3.70915 11.4956H6.84559C8.54854 11.4956 9.91802 12.8864 9.91802 14.5894V17.7521C9.91802 19.4544 8.54835 20.845 6.84559 20.845H3.70915C2.0064 20.845 0.636719 19.4544 0.636719 17.7521V14.5894Z" fill="white"/>
<path fill-rule="evenodd" clip-rule="evenodd" d="M16.6456 11.9316C17.0435 11.9316 17.366 12.2541 17.366 12.652V19.6886C17.366 20.0865 17.0435 20.409 16.6456 20.409C16.2478 20.409 15.9253 20.0865 15.9253 19.6886V12.652C15.9253 12.2541 16.2478 11.9316 16.6456 11.9316Z" fill="white"/>
<path fill-rule="evenodd" clip-rule="evenodd" d="M12.4048 16.1703C12.4048 15.7725 12.7273 15.45 13.1251 15.45H20.1685C20.5663 15.45 20.8888 15.7725 20.8888 16.1703C20.8888 16.5681 20.5663 16.8906 20.1685 16.8906H13.1251C12.7273 16.8906 12.4048 16.5681 12.4048 16.1703Z" fill="white"/>
<path fill-rule="evenodd" clip-rule="evenodd" d="M1.79199 4.87001C1.79199 2.94448 3.35293 1.38354 5.27846 1.38354C7.20398 1.38354 8.76492 2.94448 8.76492 4.87001C8.76492 6.79686 7.20379 8.35647 5.27846 8.35647C3.35312 8.35647 1.79199 6.79686 1.79199 4.87001ZM5.27846 2.82423C4.1486 2.82423 3.23268 3.74015 3.23268 4.87001C3.23268 6.00081 4.14841 6.91579 5.27846 6.91579C6.40851 6.91579 7.32423 6.00081 7.32423 4.87001C7.32423 3.74015 6.40832 2.82423 5.27846 2.82423Z" fill="white"/>
</svg>
