<svg width="16" height="15" viewBox="0 0 16 15" fill="none" xmlns="http://www.w3.org/2000/svg">
<path fill-rule="evenodd" clip-rule="evenodd" d="M14.5 7.5C14.5 4.05062 11.7 1.25 8.25 1.25C4.79375 1.25 2 4.05062 2 7.5C2 10.9506 4.79375 13.75 8.25 13.75C11.7 13.75 14.5 10.9506 14.5 7.5ZM8.8 5.13125C8.8 4.83187 8.55 4.58125 8.25 4.58125C7.95 4.58125 7.70625 4.83187 7.70625 5.13125V7.89375C7.70625 8.19438 7.95 8.4375 8.25 8.4375C8.55 8.4375 8.8 8.19438 8.8 7.89375V5.13125ZM8.24375 10.4256C8.55 10.4256 8.79375 10.1756 8.79375 9.87562C8.79375 9.57562 8.55 9.33187 8.25 9.33187C7.94375 9.33187 7.7 9.57562 7.7 9.87562C7.7 10.1756 7.94375 10.4256 8.24375 10.4256Z" fill="#034565"/>
</svg>
