<svg width="9" height="9" viewBox="0 0 9 9" fill="none" xmlns="http://www.w3.org/2000/svg">
<path fill-rule="evenodd" clip-rule="evenodd" d="M0 4.24998C0 1.99651 1.82923 0.16687 4.08311 0.16687C6.34107 0.16687 8.16622 1.99651 8.16622 4.24998C8.16622 6.50426 6.34107 8.33309 4.08311 8.33309C1.82923 8.33309 0 6.50426 0 4.24998ZM3.72384 2.70249C3.72384 2.50691 3.88717 2.34317 4.08316 2.34317C4.27915 2.34317 4.43839 2.50691 4.43839 2.70249V4.50722C4.43839 4.70362 4.27915 4.86245 4.08316 4.86245C3.88717 4.86245 3.72384 4.70362 3.72384 4.50722V2.70249ZM4.08719 6.16132C3.88712 6.16132 3.72788 5.998 3.72788 5.80201C3.72788 5.60602 3.88712 5.44678 4.08311 5.44678C4.28318 5.44678 4.44242 5.60602 4.44242 5.80201C4.44242 5.998 4.28318 6.16132 4.08719 6.16132Z" fill="#FD3939"/>
</svg>
