<svg width="30" height="22" viewBox="0 0 30 22" fill="none" xmlns="http://www.w3.org/2000/svg">
<g clip-path="url(#clip0_1_1024)">
<path d="M2.3291 0.608716C3.28584 0.433556 4.0406 0.179047 4.7984 0.176053C11.7294 0.144115 18.661 0.144115 25.5931 0.176053C26.3524 0.176053 27.1117 0.438045 28.0092 0.607217C27.7723 0.906636 27.6827 1.04886 27.5688 1.16264C24.1863 4.52911 20.8013 7.89408 17.4137 11.2576C16.1168 12.5421 14.2929 12.5645 13.0097 11.301C9.57754 7.90755 6.15454 4.50915 2.74065 1.10575C2.66472 1.01892 2.59183 0.920111 2.3291 0.608716Z" fill="white"/>
<path d="M27.8191 21.1578C27.0598 21.2941 26.3081 21.5471 25.5503 21.5501C18.6456 21.58 11.7398 21.58 4.83307 21.5501C4.07375 21.5501 3.31443 21.2971 2.56423 21.1623L2.5293 20.9153L11.9448 13.099C14.5994 14.5601 16.1621 14.5616 18.4051 13.069L27.8206 20.8779L27.8191 21.1578Z" fill="white"/>
<path d="M0.825549 19.511C0.673686 18.743 0.412478 17.975 0.404884 17.2055C0.364387 12.9887 0.364387 8.77037 0.404884 4.55056C0.404884 3.78105 0.663053 3.01454 0.808842 2.2106L10.5828 11.6677C7.39364 14.3116 4.25918 16.9211 1.11712 19.529L0.825549 19.511Z" fill="white"/>
<path d="M19.8071 11.6767L29.5446 2.31689C29.6798 2.93969 29.9607 3.64332 29.9683 4.34995C30.0088 8.69252 30.0088 13.0341 29.9683 17.3747C29.9607 18.0903 29.6646 18.8029 29.4732 19.6937L19.8071 11.6767Z" fill="white"/>
</g>
<defs>
<clipPath id="clip0_1_1024">
<rect width="29.624" height="21.4204" fill="white" transform="translate(0.375977 0.1521)"/>
</clipPath>
</defs>
</svg>
