<svg width="20" height="28" viewBox="0 0 20 28" fill="none" xmlns="http://www.w3.org/2000/svg">
<path fill-rule="evenodd" clip-rule="evenodd" d="M10.0802 2.62941C8.00873 2.62941 6.32945 4.30869 6.32945 6.38018V13.8817C6.32945 15.9532 8.00873 17.6325 10.0802 17.6325C12.1517 17.6325 13.831 15.9532 13.831 13.8817V6.38018C13.831 4.30869 12.1517 2.62941 10.0802 2.62941ZM4.45407 6.38018C4.45407 3.27294 6.97298 0.754028 10.0802 0.754028C13.1875 0.754028 15.7064 3.27294 15.7064 6.38018V13.8817C15.7064 16.989 13.1875 19.5079 10.0802 19.5079C6.97298 19.5079 4.45407 16.989 4.45407 13.8817V6.38018Z" fill="white"/>
<path fill-rule="evenodd" clip-rule="evenodd" d="M10.0802 21.3833C10.5981 21.3833 11.0179 21.8031 11.0179 22.3209V26.0717C11.0179 26.5896 10.5981 27.0094 10.0802 27.0094C9.56234 27.0094 9.14253 26.5896 9.14253 26.0717V22.3209C9.14253 21.8031 9.56234 21.3833 10.0802 21.3833Z" fill="white"/>
<path fill-rule="evenodd" clip-rule="evenodd" d="M1.57754 13.8882C2.09182 13.8273 2.55809 14.1949 2.61897 14.7091C2.83525 16.5361 3.71431 18.2201 5.0895 19.4421C6.4647 20.6641 8.24044 21.3391 10.0801 21.3391C11.9198 21.3391 13.6956 20.6641 15.0707 19.4421C16.4459 18.2201 17.325 16.5361 17.5413 14.7091C17.6022 14.1949 18.0684 13.8273 18.5827 13.8882C19.097 13.9491 19.4645 14.4153 19.4037 14.9296C19.1334 17.2126 18.0349 19.317 16.3165 20.844C14.598 22.371 12.379 23.2145 10.0801 23.2145C7.78124 23.2145 5.56225 22.371 3.8438 20.844C2.12534 19.317 1.02686 17.2126 0.756594 14.9296C0.69571 14.4153 1.06326 13.9491 1.57754 13.8882Z" fill="white"/>
</svg>
