<svg width="16" height="15" viewBox="0 0 16 15" fill="none" xmlns="http://www.w3.org/2000/svg">
<path fill-rule="evenodd" clip-rule="evenodd" d="M10.1714 10.2437H6.80507C6.55136 10.2437 6.34097 10.0312 6.34097 9.775C6.34097 9.51875 6.55136 9.3125 6.80507 9.3125H10.1714C10.4251 9.3125 10.6355 9.51875 10.6355 9.775C10.6355 10.0312 10.4251 10.2437 10.1714 10.2437ZM8.07983 6.1875H10.1714C10.4251 6.1875 10.6355 6.4 10.6355 6.65625C10.6355 6.9125 10.4251 7.11875 10.1714 7.11875H8.07983C7.82611 7.11875 7.61572 6.9125 7.61572 6.65625C7.61572 6.4 7.82611 6.1875 8.07983 6.1875ZM3.66371 5.64101C3.51825 5.63933 3.35987 5.6375 3.21597 5.6375C3.06126 5.6375 2.9375 5.7625 2.9375 5.91875V10.9438C2.9375 12.4938 4.18131 13.75 5.71597 13.75H10.6417C12.2506 13.75 13.5625 12.4312 13.5625 10.8062V4.06875C13.5625 2.51875 12.3125 1.25 10.7717 1.25H7.4672C7.30631 1.25 7.18255 1.38125 7.18255 1.5375V3.55C7.18255 4.69375 6.24814 5.63125 5.11572 5.6375C4.85121 5.6375 4.61802 5.63948 4.41394 5.64121C4.25518 5.64255 4.11403 5.64375 3.98948 5.64375C3.90139 5.64375 3.78721 5.64243 3.66371 5.64101ZM3.49307 4.72875C4.00173 4.73063 4.60136 4.72875 5.03267 4.72438C5.71708 4.72438 6.28082 4.155 6.28082 3.46375V1.81625C6.28082 1.54688 5.95718 1.41313 5.77215 1.6075L3.28082 4.22438C3.10012 4.41375 3.23255 4.72813 3.49307 4.72875Z" fill="#999999"/>
</svg>
