<svg width="25" height="24" viewBox="0 0 25 24" fill="none" xmlns="http://www.w3.org/2000/svg">
<path d="M8.17256 12.6497C8.05233 12.6497 7.93702 12.6964 7.85201 12.7797C7.76699 12.863 7.71923 12.9759 7.71923 13.0937V15.7577C7.71923 15.8754 7.76699 15.9883 7.85201 16.0716C7.93702 16.1549 8.05233 16.2017 8.17256 16.2017C8.29279 16.2017 8.4081 16.1549 8.49312 16.0716C8.57814 15.9883 8.6259 15.8754 8.6259 15.7577V15.3137H9.07651C9.4372 15.3137 9.78313 15.1733 10.0382 14.9235C10.2932 14.6737 10.4365 14.3349 10.4365 13.9817C10.4365 13.6284 10.2932 13.2896 10.0382 13.0398C9.78313 12.79 9.4372 12.6497 9.07651 12.6497H8.17256ZM9.07651 14.4257H8.6259V13.5377H9.07651C9.19674 13.5377 9.31205 13.5844 9.39707 13.6677C9.48208 13.751 9.52984 13.8639 9.52984 13.9817C9.52984 14.0994 9.48208 14.2123 9.39707 14.2956C9.31205 14.3789 9.19674 14.4257 9.07651 14.4257ZM14.968 13.0937C14.968 12.9759 15.0158 12.863 15.1008 12.7797C15.1858 12.6964 15.3011 12.6497 15.4214 12.6497H16.7859C16.9061 12.6497 17.0214 12.6964 17.1065 12.7797C17.1915 12.863 17.2392 12.9759 17.2392 13.0937C17.2392 13.2114 17.1915 13.3243 17.1065 13.4076C17.0214 13.4909 16.9061 13.5377 16.7859 13.5377H15.8738L15.8729 14.4274H16.7859C16.9061 14.4274 17.0214 14.4742 17.1065 14.5575C17.1915 14.6407 17.2392 14.7537 17.2392 14.8714C17.2392 14.9892 17.1915 15.1021 17.1065 15.1854C17.0214 15.2687 16.9061 15.3154 16.7859 15.3154H15.8729L15.8747 15.7568C15.8748 15.8151 15.8632 15.8728 15.8405 15.9267C15.8179 15.9807 15.7846 16.0297 15.7426 16.071C15.6577 16.1544 15.5425 16.2014 15.4223 16.2017C15.302 16.2019 15.1866 16.1553 15.1014 16.0722C15.0163 15.9891 14.9683 15.8763 14.968 15.7585L14.9653 14.8723V14.8705L14.968 13.0928V13.0937ZM11.7965 12.6497H12.248C12.729 12.6497 13.1902 12.8368 13.5303 13.1698C13.8703 13.5029 14.0614 13.9546 14.0614 14.4257C14.0614 14.8967 13.8703 15.3484 13.5303 15.6815C13.1902 16.0145 12.729 16.2017 12.248 16.2017H11.7965C11.6763 16.2017 11.561 16.1549 11.476 16.0716C11.3909 15.9883 11.3432 15.8754 11.3432 15.7577V13.0937C11.3432 12.9759 11.3909 12.863 11.476 12.7797C11.561 12.6964 11.6763 12.6497 11.7965 12.6497ZM12.2498 15.3137C12.4903 15.3137 12.7209 15.2201 12.891 15.0536C13.061 14.887 13.1565 14.6612 13.1565 14.4257C13.1565 14.1901 13.061 13.9643 12.891 13.7977C12.7209 13.6312 12.4903 13.5377 12.2498 13.5377V15.3137ZM12.2498 8.20788V2.87988H6.80984C6.32892 2.87988 5.86769 3.067 5.52762 3.40006C5.18756 3.73313 4.99651 4.18486 4.99651 4.65588V10.5771C4.46067 10.8266 4.08984 11.3621 4.08984 11.9819V16.8659C4.08984 17.4857 4.46067 18.0203 4.99651 18.2707V18.8639C4.99651 19.3349 5.18756 19.7866 5.52762 20.1197C5.86769 20.4528 6.32892 20.6399 6.80984 20.6399H17.6898C18.1708 20.6399 18.632 20.4528 18.9721 20.1197C19.3121 19.7866 19.5032 19.3349 19.5032 18.8639V18.2707C20.039 18.0212 20.4098 17.4857 20.4098 16.8659V11.9819C20.4098 11.3621 20.039 10.8275 19.5032 10.5771V9.98388H14.0632C13.5823 9.98388 13.121 9.79677 12.781 9.4637C12.4409 9.13064 12.2498 8.67891 12.2498 8.20788ZM5.67651 11.7599H18.8232C18.8833 11.7599 18.9409 11.7833 18.9835 11.8249C19.026 11.8665 19.0498 11.923 19.0498 11.9819V16.8659C19.0498 16.9248 19.026 16.9812 18.9835 17.0229C18.9409 17.0645 18.8833 17.0879 18.8232 17.0879H5.67651C5.61639 17.0879 5.55874 17.0645 5.51623 17.0229C5.47372 16.9812 5.44984 16.9248 5.44984 16.8659V11.9819C5.44984 11.923 5.47372 11.8665 5.51623 11.8249C5.55874 11.7833 5.61639 11.7599 5.67651 11.7599ZM13.6098 8.20788V3.32388L19.0498 8.65188H14.0632C13.9429 8.65188 13.8276 8.6051 13.7426 8.52184C13.6576 8.43857 13.6098 8.32564 13.6098 8.20788Z" fill="white"/>
</svg>
