<svg width="31" height="31" viewBox="0 0 31 31" fill="none" xmlns="http://www.w3.org/2000/svg">
<path d="M26.686 12.5941C27.4119 11.8564 27.4025 10.6661 26.6707 9.94598L21.4237 4.70018C21.0672 4.34835 20.5922 4.15367 20.0938 4.16071C19.593 4.16423 19.1228 4.3636 18.7756 4.71543L4.7012 18.791C4.34937 19.144 4.15704 19.6131 4.15821 20.1092V25.3515C4.15821 26.3859 5.00026 27.2279 6.03464 27.2279H25.7372C26.2555 27.2279 26.6754 26.8081 26.6754 26.2897C26.6754 25.7713 26.2555 25.3515 25.7372 25.3515H13.9286L26.686 12.5941ZM20.1137 6.04183L25.3443 11.2829L22.9237 13.7035L17.6873 8.46712L20.1137 6.04183ZM6.02995 20.1162L16.3585 9.79352L21.595 15.0299L11.2758 25.3515H6.03464L6.02995 20.1162Z" fill="white"/>
</svg>
