<svg width="16" height="15" viewBox="0 0 16 15" fill="none" xmlns="http://www.w3.org/2000/svg">
<path fill-rule="evenodd" clip-rule="evenodd" d="M2 7.50362C2 4.05391 4.80526 1.25 8.25 1.25C11.6947 1.25 14.5 4.05391 14.5 7.50362C14.5 10.9461 11.6947 13.75 8.25 13.75C4.80526 13.75 2 10.9461 2 7.50362ZM10.5425 8.13616C10.6088 8.06983 10.6933 7.96732 10.7114 7.9432C10.8079 7.81657 10.8562 7.65979 10.8562 7.50362C10.8562 7.32815 10.8019 7.16534 10.6993 7.03268C10.6909 7.02428 10.6745 7.00637 10.653 6.98303C10.6129 6.93935 10.5553 6.87665 10.5002 6.82164C10.0056 6.291 8.71453 5.4227 8.03885 5.15738C7.93629 5.11577 7.67688 5.02472 7.53813 5.01869C7.40541 5.01869 7.27872 5.04884 7.15806 5.10914C7.00724 5.19356 6.88658 5.32622 6.82022 5.483C6.77799 5.59153 6.71163 5.91715 6.71163 5.92318C6.64527 6.27894 6.60907 6.85781 6.60907 7.49698C6.60907 8.10661 6.64527 8.66076 6.69957 9.02255C6.70106 9.02404 6.70625 9.04992 6.71431 9.09012C6.73882 9.21233 6.78988 9.46691 6.84435 9.57127C6.97708 9.82453 7.23649 9.98131 7.514 9.98131H7.53813C7.71911 9.97528 8.09918 9.8185 8.09918 9.81247C8.73866 9.54715 9.99952 8.72106 10.5063 8.17233L10.5425 8.13616Z" fill="#999999"/>
</svg>
