<svg width="24" height="24" viewBox="0 0 24 24" fill="none" xmlns="http://www.w3.org/2000/svg">
<path fill-rule="evenodd" clip-rule="evenodd" d="M10.6053 3.75C8.78717 3.75 7.0435 4.47225 5.75788 5.75788C4.47225 7.0435 3.75 8.78717 3.75 10.6053C3.75 12.4235 4.47225 14.1671 5.75788 15.4528C7.0435 16.7384 8.78717 17.4606 10.6053 17.4606C12.4161 17.4606 14.153 16.7442 15.4371 15.4683C15.4434 15.4616 15.4499 15.4549 15.4564 15.4483C15.4625 15.4423 15.4686 15.4364 15.4747 15.4307C16.7466 14.1472 17.4606 12.4131 17.4606 10.6053C17.4606 8.78717 16.7384 7.0435 15.4528 5.75788C14.1671 4.47225 12.4235 3.75 10.6053 3.75ZM17.0228 15.9558C18.2698 14.4603 18.9606 12.5684 18.9606 10.6053C18.9606 8.38935 18.0803 6.26414 16.5134 4.69722C14.9465 3.13029 12.8213 2.25 10.6053 2.25C8.38935 2.25 6.26414 3.13029 4.69722 4.69722C3.13029 6.26414 2.25 8.38935 2.25 10.6053C2.25 12.8213 3.13029 14.9465 4.69722 16.5134C6.26414 18.0803 8.38935 18.9606 10.6053 18.9606C12.5714 18.9606 14.466 18.2677 15.9627 17.0171L19.4693 20.53C19.762 20.8231 20.2368 20.8236 20.53 20.5309C20.8231 20.2383 20.8236 19.7634 20.5309 19.4703L17.0228 15.9558Z" fill="#262551"/>
</svg>
