<svg width="32" height="31" viewBox="0 0 32 31" fill="none" xmlns="http://www.w3.org/2000/svg">
<g clip-path="url(#clip0_1_1014)">
<path d="M22.7816 0H17.572V21.056C17.572 23.5648 15.5683 25.6256 13.0749 25.6256C10.5814 25.6256 8.57772 23.5648 8.57772 21.056C8.57772 18.592 10.5369 16.576 12.9413 16.4864V11.2C7.64267 11.2896 3.36816 15.6352 3.36816 21.056C3.36816 26.5216 7.73172 30.912 13.1194 30.912C18.507 30.912 22.8706 26.4768 22.8706 21.056V10.2592C24.8298 11.6928 27.2341 12.544 29.7722 12.5888V7.3024C25.8539 7.168 22.7816 3.9424 22.7816 0Z" fill="white"/>
</g>
<defs>
<clipPath id="clip0_1_1014">
<rect width="30.912" height="30.912" fill="white" transform="translate(0.791992)"/>
</clipPath>
</defs>
</svg>
