<svg width="16" height="15" viewBox="0 0 16 15" fill="none" xmlns="http://www.w3.org/2000/svg">
<path fill-rule="evenodd" clip-rule="evenodd" d="M7.85498 2.34375C6.0428 2.34375 4.57373 3.81282 4.57373 5.625C4.57373 7.43718 6.0428 8.90625 7.85498 8.90625C9.66716 8.90625 11.1362 7.43718 11.1362 5.625C11.1362 3.81282 9.66716 2.34375 7.85498 2.34375ZM3.63623 5.625C3.63623 3.29505 5.52503 1.40625 7.85498 1.40625C10.1849 1.40625 12.0737 3.29505 12.0737 5.625C12.0737 7.95495 10.1849 9.84375 7.85498 9.84375C5.52503 9.84375 3.63623 7.95495 3.63623 5.625Z" fill="#848484"/>
<path fill-rule="evenodd" clip-rule="evenodd" d="M7.85506 9.84318C6.78529 9.84318 5.73437 10.1248 4.80794 10.6597C3.88152 11.1947 3.11224 11.964 2.57744 12.8905C2.44801 13.1147 2.16134 13.1916 1.93713 13.0622C1.71292 12.9328 1.63607 12.6461 1.76549 12.4219C2.38257 11.3528 3.2702 10.4651 4.33915 9.84785C5.40811 9.23062 6.62071 8.90568 7.85506 8.90568C9.08941 8.90568 10.302 9.23062 11.371 9.84785C12.4399 10.4651 13.3275 11.3528 13.9446 12.4219C14.074 12.6461 13.9972 12.9328 13.773 13.0622C13.5488 13.1916 13.2621 13.1147 13.1327 12.8905C12.5979 11.964 11.8286 11.1947 10.9022 10.6597C9.97575 10.1248 8.92483 9.84318 7.85506 9.84318Z" fill="#848484"/>
</svg>
