<svg width="25" height="24" viewBox="0 0 25 24" fill="none" xmlns="http://www.w3.org/2000/svg">
<path d="M15.15 2.40039V7.20039H19.95L15.15 2.40039ZM13.95 7.20039V2.40039H7.35005C6.35592 2.40039 5.55005 3.20627 5.55005 4.20039V19.8004C5.55005 20.7941 6.35592 21.6004 7.35005 21.6004H18.15C19.1442 21.6004 19.95 20.7945 19.95 19.8004V8.40039H15.1838C14.4863 8.40039 13.95 7.86414 13.95 7.20039ZM13.95 16.8004C13.95 17.463 13.4127 18.0004 12.75 18.0004H9.15005C8.48742 18.0004 7.95005 17.463 7.95005 16.8004V13.2004C7.95005 12.5378 8.48742 12.0004 9.15005 12.0004H12.75C13.4127 12.0004 13.95 12.5378 13.95 13.2004V16.8004ZM17.55 13.0841V16.9204C17.55 17.3918 17.0318 17.679 16.632 17.4293L15.15 16.5004V13.5004L16.632 12.5741C17.0325 12.3229 17.55 12.6116 17.55 13.0841Z" fill="white"/>
</svg>
