<svg width="32" height="23" viewBox="0 0 32 23" fill="none" xmlns="http://www.w3.org/2000/svg">
<path d="M31.1881 5.27366C31.1881 5.27366 30.8862 3.14242 29.9564 2.20661C28.7791 0.974957 27.4629 0.968919 26.8592 0.896469C22.5363 0.582519 16.046 0.58252 16.046 0.58252H16.0339C16.0339 0.58252 9.54363 0.582519 5.22078 0.896469C4.61703 0.968919 3.30086 0.974957 2.12355 2.20661C1.19377 3.14242 0.897934 5.27366 0.897934 5.27366C0.897934 5.27366 0.583984 7.77922 0.583984 10.2787V12.6213C0.583984 15.1208 0.891897 17.6264 0.891897 17.6264C0.891897 17.6264 1.19377 19.7576 2.11751 20.6934C3.29482 21.9251 4.84042 21.8828 5.5287 22.0156C8.00407 22.2511 16.04 22.3236 16.04 22.3236C16.04 22.3236 22.5363 22.3115 26.8592 22.0036C27.4629 21.9311 28.7791 21.9251 29.9564 20.6934C30.8862 19.7576 31.1881 17.6264 31.1881 17.6264C31.1881 17.6264 31.496 15.1269 31.496 12.6213V10.2787C31.496 7.77922 31.1881 5.27366 31.1881 5.27366ZM12.8461 15.465V6.77699L21.196 11.1361L12.8461 15.465Z" fill="white"/>
</svg>
